<svg width="22" height="22" viewBox="0 0 22 22" fill="none" xmlns="http://www.w3.org/2000/svg">
<path d="M11.8652 5.48975C11.8652 4.93746 11.4175 4.48975 10.8652 4.48975C10.313 4.48975 9.86524 4.93746 9.86524 5.48975V9.98975L5.36523 9.98975C4.81295 9.98975 4.36523 10.4375 4.36523 10.9897C4.36523 11.542 4.81295 11.9897 5.36523 11.9897L9.86524 11.9897V16.4897C9.86524 17.042 10.313 17.4897 10.8652 17.4897C11.4175 17.4897 11.8652 17.042 11.8652 16.4897V11.9897H16.3652C16.9175 11.9897 17.3652 11.542 17.3652 10.9897C17.3652 10.4375 16.9175 9.98975 16.3652 9.98975H11.8652V5.48975Z" fill="black"/>
<path fill-rule="evenodd" clip-rule="evenodd" d="M0 6C0 2.68629 2.68629 0 6 0H16C19.3137 0 22 2.68629 22 6V16C22 19.3137 19.3137 22 16 22H6C2.68629 22 0 19.3137 0 16V6ZM6 2H16C18.2091 2 20 3.79086 20 6V16C20 18.2091 18.2091 20 16 20H6C3.79086 20 2 18.2091 2 16V6C2 3.79086 3.79086 2 6 2Z" fill="black"/>
</svg>
