<svg width="20" height="20" viewBox="0 0 20 20" fill="none" xmlns="http://www.w3.org/2000/svg">
<path fill-rule="evenodd" clip-rule="evenodd" d="M4.39024 0C1.96558 0 0 1.96558 0 4.39024V15.6098C0 18.0344 1.96558 20 4.39024 20H15.6098C18.0344 20 20 18.0344 20 15.6098V4.39024C20 1.96558 18.0344 0 15.6098 0H4.39024ZM1.95122 4.39024C1.95122 3.04321 3.04321 1.95122 4.39024 1.95122H15.6098C16.9568 1.95122 18.0488 3.04321 18.0488 4.39024V15.6098C18.0488 16.9568 16.9568 18.0488 15.6098 18.0488H4.39024C3.04321 18.0488 1.95122 16.9568 1.95122 15.6098V4.39024ZM10.7317 4.63415C10.7317 4.23004 10.4041 3.90244 10 3.90244C9.59589 3.90244 9.26829 4.23004 9.26829 4.63415V9.26829H4.14634C3.74223 9.26829 3.41463 9.59589 3.41463 10C3.41463 10.4041 3.74223 10.7317 4.14634 10.7317H9.26829V15.8537C9.26829 16.2578 9.59589 16.5854 10 16.5854C10.4041 16.5854 10.7317 16.2578 10.7317 15.8537V10.7317H15.8537C16.2578 10.7317 16.5854 10.4041 16.5854 10C16.5854 9.59589 16.2578 9.26829 15.8537 9.26829H10.7317V4.63415Z" fill="#262626"/>
</svg>
