<svg width="21" height="21" viewBox="0 0 21 21" fill="none" xmlns="http://www.w3.org/2000/svg">
<path fill-rule="evenodd" clip-rule="evenodd" d="M3.49599 3.50995C5.17095 1.57179 7.71498 0.043457 11.122 0.043457C14.5797 0.043457 17.0646 1.80685 18.6538 3.82663C20.208 5.80203 20.9985 8.14018 20.9985 9.54346C20.9985 11.0604 20.7314 12.3783 20.3895 13.3869C20.2187 13.8907 20.0258 14.3275 19.8309 14.6797C19.7631 14.8024 19.6891 14.9258 19.6092 15.0437L20.4752 18.5509C20.5594 18.8917 20.4607 19.2522 20.2154 19.5006C19.9701 19.7489 19.6141 19.8488 19.2775 19.7636L15.7345 18.8668C14.8305 19.3873 13.1578 20.0435 11.122 20.0435C5.06104 20.0435 0.998535 14.7574 0.998535 9.54346C0.998535 7.76724 1.84972 5.41492 3.49599 3.50995ZM4.98256 4.82696C3.60414 6.42199 2.97384 8.31967 2.97384 9.54346C2.97384 13.8296 6.31874 18.0435 11.122 18.0435C13.0711 18.0435 14.5686 17.2862 14.9924 16.9797C15.2278 16.8094 15.5252 16.7523 15.806 16.8233L18.1597 17.4191L17.5712 15.036C17.4793 14.6637 17.6059 14.2709 17.8971 14.0252C17.8939 14.028 17.8947 14.0269 17.8994 14.0213C17.9177 13.9993 17.9939 13.9079 18.1075 13.7025C18.2367 13.4688 18.3834 13.1441 18.5212 12.7376C18.7965 11.9253 19.0232 10.8265 19.0232 9.54346C19.0232 8.69674 18.4558 6.78488 17.1087 5.07278C15.7966 3.40506 13.8371 2.04346 11.122 2.04346C8.35617 2.04346 6.3323 3.26513 4.98256 4.82696Z" fill="#262626"/>
</svg>
