<svg width="22" height="19" viewBox="0 0 22 19" fill="none" xmlns="http://www.w3.org/2000/svg">
<path fill-rule="evenodd" clip-rule="evenodd" d="M3.02745 3.27526C2.26042 4.07031 1.77968 5.27737 2.10065 6.97348C2.416 8.63992 3.87627 10.5867 5.8573 12.4962C7.57443 14.1512 9.55026 15.6549 11.1279 16.7668C11.2996 16.6392 11.4753 16.5092 11.6545 16.3767C13.1271 15.2871 14.8254 14.0304 16.3331 12.612C18.2558 10.803 19.6661 8.90893 19.9396 7.01639C20.3618 4.09455 18.5565 2 16.1646 2C14.7177 2 13.6755 2.51693 12.9782 3.13449C12.2476 3.78156 11.934 4.50031 11.8892 4.83013C11.8236 5.31352 11.4188 5.67903 10.9313 5.69511C10.4437 5.71119 10.0157 5.37314 9.91841 4.89513C9.72306 3.93553 8.69507 2 6.13359 2C4.99785 2 3.82404 2.44956 3.02745 3.27526ZM1.58809 1.88664C2.7987 0.631804 4.5108 0 6.13359 0C8.53335 0 10.0518 1.15743 10.9305 2.39443C11.1417 2.13106 11.3829 1.87573 11.6522 1.63725C12.6936 0.714959 14.2009 0 16.1646 0C19.9867 0 22.4838 3.39424 21.919 7.30245C21.5434 9.90203 19.6935 12.1964 17.7035 14.0687C16.1 15.5773 14.2745 16.9273 12.7962 18.0204C12.423 18.2964 12.0718 18.5561 11.752 18.7978C11.4085 19.0574 10.9373 19.068 10.5824 18.824C8.89146 17.661 6.52177 15.9144 4.46936 13.9362C2.45989 11.9993 0.576495 9.67562 0.135525 7.34536C-0.299827 5.04477 0.347923 3.17212 1.58809 1.88664Z" fill="#262626"/>
</svg>
