<svg width="22" height="21" viewBox="0 0 22 21" fill="none" xmlns="http://www.w3.org/2000/svg">
<path d="M7.05073 18.0869C7.67023 17.8139 8.36324 17.7624 9.01214 17.941C9.82064 18.1615 10.6554 18.2728 11.4985 18.2707C16.3128 18.2707 19.8985 14.8192 19.8985 10.1854C19.8985 5.55155 16.3128 2.10008 11.4985 2.10008C6.68429 2.10008 3.09854 5.55155 3.09854 10.1854C3.09854 12.569 4.03934 14.6711 5.68784 16.1454C5.98735 16.4107 6.22957 16.7344 6.39964 17.0965C6.56972 17.4587 6.66407 17.8518 6.67694 18.2518L7.05073 18.0869ZM11.4985 0C17.4142 0 21.9985 4.33351 21.9985 10.1854C21.9985 16.0372 17.4142 20.3707 11.4985 20.3707C10.4718 20.3734 9.44935 20.2378 8.45878 19.9675C8.27273 19.9164 8.07473 19.9308 7.89809 20.0085L5.81489 20.9283C5.68902 20.9839 5.55142 21.0078 5.41418 20.9978C5.27693 20.9877 5.14426 20.9442 5.0278 20.8709C4.91135 20.7975 4.8147 20.6967 4.74633 20.5773C4.67797 20.4579 4.63999 20.3235 4.63574 20.1859L4.57798 18.3169C4.5742 18.2032 4.5473 18.0915 4.49892 17.9886C4.45053 17.8857 4.38169 17.7938 4.29658 17.7183C2.25328 15.8923 0.998535 13.2483 0.998535 10.1854C0.998535 4.33351 5.58389 0 11.4985 0ZM5.19328 13.1643L8.27714 8.27115C8.39316 8.08692 8.54613 7.92876 8.72636 7.80663C8.9066 7.68451 9.1102 7.60108 9.32431 7.56161C9.53841 7.52214 9.75838 7.52749 9.97031 7.57732C10.1822 7.62716 10.3815 7.72039 10.5556 7.85113L13.0084 9.6887C13.1178 9.77124 13.251 9.81589 13.388 9.81589C13.525 9.81589 13.6583 9.77124 13.7676 9.6887L17.0803 7.17281C17.5224 6.83785 18.0999 7.36707 17.8038 7.83748L14.7199 12.7307C14.6039 12.9149 14.4509 13.0731 14.2707 13.1952C14.0905 13.3173 13.8869 13.4007 13.6728 13.4402C13.4587 13.4797 13.2387 13.4743 13.0268 13.4245C12.8148 13.3747 12.6155 13.2814 12.4414 13.1507L9.98864 11.3131C9.8793 11.2306 9.74605 11.1859 9.60906 11.1859C9.47207 11.1859 9.33882 11.2306 9.22948 11.3131L5.91674 13.828C5.47469 14.1629 4.89719 13.6337 5.19328 13.1633V13.1643Z" fill="#262626"/>
</svg>
