<svg width="24" height="22" viewBox="0 0 24 22" fill="none" xmlns="http://www.w3.org/2000/svg">
<path d="M1.28033 0.201372C0.987439 -0.067124 0.512569 -0.067124 0.219679 0.201372C-0.0732262 0.469855 -0.0732262 0.905152 0.219679 1.17363L5.46789 5.98451C2.95559 7.5512 1.08501 10.0015 0.420168 12.9221C0.335568 13.2938 0.595684 13.658 1.00116 13.7356C1.40664 13.8131 1.80393 13.5747 1.88855 13.2029C2.49426 10.5421 4.23543 8.33648 6.55065 6.97704L8.92341 9.15206C7.59764 10.0256 6.73421 11.4516 6.73421 13.0625C6.73421 15.7204 9.08471 17.875 11.9842 17.875C13.7415 17.875 15.2972 17.0836 16.2501 15.8682L22.7196 21.7987C23.0126 22.0671 23.4875 22.0671 23.7804 21.7987C24.0732 21.5302 24.0732 21.0948 23.7804 20.8263L1.28033 0.201372Z" fill="#212121" fill-opacity="0.25"/>
<path d="M8.29657 4.68847L9.50116 5.79268C10.3071 5.6011 11.1451 5.5 11.9999 5.5C16.8084 5.5 21.0861 8.69946 22.1114 13.2029C22.196 13.5747 22.5933 13.8131 22.9988 13.7356C23.4042 13.6579 23.6643 13.2938 23.5797 12.9221C22.4138 7.80054 17.5401 4.125 11.9999 4.125C10.7172 4.125 9.47014 4.32205 8.29657 4.68847Z" fill="#212121" fill-opacity="0.25"/>
</svg>
