<svg width="22" height="23" viewBox="0 0 22 23" fill="none" xmlns="http://www.w3.org/2000/svg">
<path fill-rule="evenodd" clip-rule="evenodd" d="M11 14.7266C13.4853 14.7266 15.5 12.7118 15.5 10.2266C15.5 7.74128 13.4853 5.72656 11 5.72656C8.51472 5.72656 6.5 7.74128 6.5 10.2266C6.5 12.7118 8.51472 14.7266 11 14.7266ZM11 12.7266C12.3807 12.7266 13.5 11.6073 13.5 10.2266C13.5 8.84585 12.3807 7.72656 11 7.72656C9.61929 7.72656 8.5 8.84585 8.5 10.2266C8.5 11.6073 9.61929 12.7266 11 12.7266Z" fill="black"/>
<path fill-rule="evenodd" clip-rule="evenodd" d="M20 22.3047C21.1046 22.3047 22 21.4093 22 20.3047V4.30469C22 3.20012 21.1046 2.30469 20 2.30469H13.9949C13.719 2.30469 13.4553 2.19068 13.2663 1.98965L11.8201 0.451275C11.4319 0.0383552 10.7785 0.0302425 10.3801 0.433397L8.82486 2.00752C8.63699 2.19767 8.38081 2.30469 8.1135 2.30469H2C0.895431 2.30469 0 3.20012 0 4.30469V20.3047C0 21.4093 0.89543 22.3047 2 22.3047H20ZM20 20.3047V4.30469H13.9949C13.1671 4.30469 12.3761 3.96266 11.8092 3.35956L11.0736 2.57715L10.2476 3.41319C9.68395 3.98364 8.91542 4.30469 8.1135 4.30469L2 4.30469L2 20.3047L3.72489 20.3047C3.85515 17.6594 6.04116 15.5547 8.71875 15.5547H13.625C16.3026 15.5547 18.4886 17.6594 18.6189 20.3047L20 20.3047ZM16.6147 20.3047C16.4877 18.7648 15.1977 17.5547 13.625 17.5547H8.71875C7.14608 17.5547 5.85606 18.7648 5.72902 20.3047H16.6147Z" fill="black"/>
</svg>
