<svg width="22" height="22" viewBox="0 0 22 22" fill="none" xmlns="http://www.w3.org/2000/svg">
<path fill-rule="evenodd" clip-rule="evenodd" d="M9.29122 9.56223C8.833 9.2873 8.25 9.61737 8.25 10.1518V15.9732C8.25 16.5076 8.833 16.8377 9.29122 16.5628L14.1424 13.652C14.5875 13.385 14.5875 12.74 14.1424 12.473L9.29122 9.56223Z" fill="#262626"/>
<path fill-rule="evenodd" clip-rule="evenodd" d="M6.1875 0C2.77024 0 0 2.77024 0 6.1875V15.8125C0 19.2298 2.77024 22 6.1875 22H15.8125C19.2298 22 22 19.2298 22 15.8125V6.1875C22 2.77024 19.2298 0 15.8125 0H6.1875ZM7.03732 1.375L9.09982 5.5H13.6736L11.382 1.375H7.03732ZM20.625 6.875V15.8125C20.625 18.4704 18.4704 20.625 15.8125 20.625H6.1875C3.52963 20.625 1.375 18.4704 1.375 15.8125V6.875H20.625ZM12.9549 1.375L15.2465 5.5H20.5763C20.2427 3.1678 18.237 1.375 15.8125 1.375H12.9549ZM7.5625 5.5L5.52277 1.42053C3.40435 1.71322 1.7263 3.38475 1.42374 5.5H7.5625Z" fill="#262626"/>
</svg>
