<svg width="18" height="21" viewBox="0 0 18 21" fill="none" xmlns="http://www.w3.org/2000/svg">
<path fill-rule="evenodd" clip-rule="evenodd" d="M0 0.75C0 0.335786 0.335786 0 0.75 0H16.75C17.1642 0 17.5 0.335786 17.5 0.75V19.75C17.5 20.0521 17.3187 20.3247 17.0401 20.4416C16.7615 20.5585 16.44 20.4968 16.2245 20.2851L8.62754 12.8242L1.28422 20.2764C1.0706 20.4932 0.747149 20.5594 0.465539 20.444C0.183928 20.3285 0 20.0544 0 19.75V0.75ZM1.5 1.5V17.9203L8.08463 11.2381C8.37502 10.9434 8.84919 10.9395 9.14437 11.2294L16 17.9622V1.5H1.5Z" fill="#262626"/>
</svg>
