<svg width="23" height="24" viewBox="0 0 23 24" fill="none" xmlns="http://www.w3.org/2000/svg">
<path d="M22.6321 21.3661L17.797 16.5434C19.1613 14.8053 19.9016 12.659 19.8988 10.4494C19.8988 8.4816 19.3153 6.55799 18.222 4.92182C17.1288 3.28564 15.5749 2.0104 13.7569 1.25736C11.9389 0.504311 9.93837 0.30728 8.00838 0.691179C6.07838 1.07508 4.30557 2.02267 2.91412 3.41412C1.52267 4.80557 0.575079 6.57838 0.191179 8.50838C-0.19272 10.4384 0.00431087 12.4389 0.757358 14.2569C1.5104 16.0749 2.78564 17.6288 4.42182 18.722C6.05799 19.8153 7.9816 20.3988 9.94941 20.3988C12.159 20.4016 14.3053 19.6613 16.0434 18.297L20.8661 23.1321C20.9817 23.2487 21.1193 23.3412 21.2708 23.4044C21.4224 23.4675 21.5849 23.5 21.7491 23.5C21.9133 23.5 22.0759 23.4675 22.2274 23.4044C22.379 23.3412 22.5165 23.2487 22.6321 23.1321C22.7487 23.0165 22.8412 22.879 22.9044 22.7274C22.9675 22.5759 23 22.4133 23 22.2491C23 22.0849 22.9675 21.9224 22.9044 21.7708C22.8412 21.6193 22.7487 21.4817 22.6321 21.3661ZM2.48736 10.4494C2.48736 8.97355 2.925 7.53084 3.74494 6.30371C4.56488 5.07659 5.73029 4.12016 7.0938 3.55537C8.45732 2.99058 9.95769 2.84281 11.4052 3.13074C12.8527 3.41866 14.1823 4.12935 15.2259 5.17294C16.2695 6.21653 16.9802 7.54614 17.2681 8.99363C17.556 10.4411 17.4082 11.9415 16.8434 13.305C16.2787 14.6685 15.3222 15.8339 14.0951 16.6539C12.868 17.4738 11.4253 17.9115 9.94941 17.9115C7.97035 17.9115 6.07235 17.1253 4.67294 15.7259C3.27353 14.3265 2.48736 12.4285 2.48736 10.4494Z" fill="#262626"/>
</svg>
