<svg width="23" height="20" viewBox="0 0 23 20" fill="none" xmlns="http://www.w3.org/2000/svg">
<path d="M22.3253 1.2575C22.3975 1.3943 22.4279 1.54928 22.4127 1.70319C22.3976 1.85711 22.3375 2.00317 22.24 2.12325L11.5767 19.3526C11.4397 19.522 11.2587 19.6503 11.0535 19.7234C10.8483 19.7965 10.6269 19.8116 10.4137 19.7671C10.2005 19.7225 10.0037 19.6199 9.84498 19.4707C9.68629 19.3215 9.57184 19.1313 9.51424 18.9213L7.04446 9.90789L0.988414 2.78995C0.846844 2.62401 0.753868 2.42218 0.719745 2.20674C0.685623 1.9913 0.711681 1.77062 0.795044 1.56905C0.878408 1.36749 1.01584 1.19287 1.19216 1.06447C1.36849 0.936063 1.57686 0.858868 1.79429 0.841399L21.5615 0.841829C21.7156 0.828926 21.8701 0.861587 22.0059 0.935755C22.1416 1.00992 22.2525 1.12233 22.3249 1.25901L22.3253 1.2575ZM8.68576 9.93177L10.8322 17.7601L18.5941 4.12089L8.68576 9.93177ZM17.8566 2.72547L2.68922 2.35311L7.95021 8.5353L17.8581 2.72593L17.8566 2.72547Z" fill="#262626"/>
</svg>
