<svg width="22" height="24" viewBox="0 0 22 24" fill="none" xmlns="http://www.w3.org/2000/svg">
<path fill-rule="evenodd" clip-rule="evenodd" d="M11 1.9375C10.2038 1.9375 9.43473 2.24745 8.86349 2.80766C8.29134 3.36873 7.96551 4.13481 7.96551 4.9386V5.53125H14.0345V4.9386C14.0345 4.13481 13.7086 3.36873 13.1365 2.80766C12.5653 2.24745 11.7962 1.9375 11 1.9375ZM6.44827 4.9386V5.53125H3.76988C2.82027 5.53125 1.97057 5.79633 1.35804 6.3769C0.749744 6.95348 0.468926 7.75255 0.465087 8.6484L0 17.5041V17.522C0 20.9567 2.58671 23.5 6.22616 23.5H15.7738C19.4103 23.5 22.0058 20.9693 22 17.5308V17.5135L21.5323 8.62842C21.5285 7.73293 21.2483 6.93683 20.6378 6.36426C20.0242 5.78882 19.1751 5.53125 18.2301 5.53125H15.5517V4.9386C15.5517 3.76925 15.0783 2.64303 14.2277 1.80887C13.3763 0.973878 12.2158 0.5 11 0.5C9.78423 0.5 8.62369 0.973878 7.77229 1.80887C6.92173 2.64303 6.44827 3.76925 6.44827 4.9386ZM3.76988 6.96875H7.20689H14.7931H18.2301C18.8909 6.96875 19.3136 7.1451 19.5704 7.38591C19.826 7.62559 20.0151 8.021 20.0151 8.6471V8.66507L20.4827 17.5499C20.479 20.2047 18.5446 22.0625 15.7738 22.0625H6.22616C3.45859 22.0625 1.52564 20.1976 1.51727 17.5393L1.98229 8.68491V8.66701C1.98229 8.04112 2.17199 7.63878 2.43113 7.39315C2.69026 7.14754 3.11366 6.96875 3.76988 6.96875ZM7.96551 9.84375C7.96551 9.44678 7.62588 9.125 7.20689 9.125C6.78791 9.125 6.44827 9.44678 6.44827 9.84375C6.44827 10.9875 6.9278 12.0844 7.78147 12.8931C8.63507 13.7019 9.7928 14.1562 11 14.1562C12.2072 14.1562 13.3649 13.7019 14.2185 12.8931C15.0722 12.0844 15.5517 10.9875 15.5517 9.84375C15.5517 9.44678 15.2121 9.125 14.7931 9.125C14.3741 9.125 14.0345 9.44678 14.0345 9.84375C14.0345 10.6063 13.7148 11.3375 13.1457 11.8767C12.5766 12.4159 11.8048 12.7188 11 12.7188C10.1952 12.7188 9.42335 12.4159 8.85431 11.8767C8.2852 11.3375 7.96551 10.6063 7.96551 9.84375Z" fill="#262626"/>
</svg>
