<svg width="22" height="22" viewBox="0 0 22 22" fill="none" xmlns="http://www.w3.org/2000/svg">
<mask id="path-1-inside-1_2_140" fill="white">
<path fill-rule="evenodd" clip-rule="evenodd" d="M6.99995 0H10.7344L10.8083 0.124638L13.1063 3.99902L13.755 5.11113H9.68285L8.54806 3.16576L6.73323 0.00498782C6.82173 0.00167248 6.91065 0 6.99995 0ZM0.257764 5.11113C0.870972 2.91776 2.52573 1.15921 4.65517 0.402372L6.81534 4.16462L6.81532 4.16463L6.81878 4.17056L7.36744 5.11113H0.257764ZM-4.57764e-05 15V7.11113H8.53411L8.54487 7.12957L8.57649 7.11113H9.07938H22V15C22 18.866 18.8659 22 15 22H6.99995C3.13396 22 -4.57764e-05 18.866 -4.57764e-05 15ZM15 0C18.2115 0 20.9178 2.16269 21.7421 5.11113H16.0704L16.0543 5.08345L14.832 2.98821L14.8321 2.9882L14.8284 2.98195L13.0597 0H15ZM10.0752 9.89285C9.41795 9.53372 8.61369 9.99806 8.59605 10.7469L8.47423 15.9189C8.45586 16.699 9.29819 17.1987 9.97396 16.8085L14.6358 14.117C15.3116 13.7268 15.3001 12.7475 14.6153 12.3734L10.0752 9.89285Z"/>
</mask>
<path fill-rule="evenodd" clip-rule="evenodd" d="M6.99995 0H10.7344L10.8083 0.124638L13.1063 3.99902L13.755 5.11113H9.68285L8.54806 3.16576L6.73323 0.00498782C6.82173 0.00167248 6.91065 0 6.99995 0ZM0.257764 5.11113C0.870972 2.91776 2.52573 1.15921 4.65517 0.402372L6.81534 4.16462L6.81532 4.16463L6.81878 4.17056L7.36744 5.11113H0.257764ZM-4.57764e-05 15V7.11113H8.53411L8.54487 7.12957L8.57649 7.11113H9.07938H22V15C22 18.866 18.8659 22 15 22H6.99995C3.13396 22 -4.57764e-05 18.866 -4.57764e-05 15ZM15 0C18.2115 0 20.9178 2.16269 21.7421 5.11113H16.0704L16.0543 5.08345L14.832 2.98821L14.8321 2.9882L14.8284 2.98195L13.0597 0H15ZM10.0752 9.89285C9.41795 9.53372 8.61369 9.99806 8.59605 10.7469L8.47423 15.9189C8.45586 16.699 9.29819 17.1987 9.97396 16.8085L14.6358 14.117C15.3116 13.7268 15.3001 12.7475 14.6153 12.3734L10.0752 9.89285Z" fill="black"/>
<path d="M10.7344 0L12.4546 -1.02027L11.8735 -2H10.7344V0ZM10.8083 0.124638L9.08813 1.14491V1.14491L10.8083 0.124638ZM13.1063 3.99902L14.8338 2.99128L14.8302 2.985L14.8265 2.97875L13.1063 3.99902ZM13.755 5.11113V7.11113H17.2371L15.4826 4.10339L13.755 5.11113ZM9.68285 5.11113L7.9553 6.11887L8.53411 7.11113H9.68285V5.11113ZM8.54806 3.16576L6.81358 4.16165L6.8205 4.17351L8.54806 3.16576ZM6.73323 0.00498782L6.65836 -1.99361L3.35062 -1.86969L4.9988 1.00085L6.73323 0.00498782ZM4.65517 0.402372L6.3896 -0.593489L5.55837 -2.04121L3.98538 -1.48214L4.65517 0.402372ZM0.257764 5.11113L-1.66838 4.57263L-2.37807 7.11113H0.257764V5.11113ZM6.81534 4.16462L7.83831 5.8832L9.53012 4.87617L8.54977 3.16875L6.81534 4.16462ZM6.81532 4.16463L5.79235 2.44604L4.08894 3.45997L5.08773 5.17231L6.81532 4.16463ZM6.81878 4.17056L5.09118 5.17824L5.09122 5.1783L6.81878 4.17056ZM7.36744 5.11113V7.11113H10.8495L9.095 4.10339L7.36744 5.11113ZM-4.57764e-05 7.11113V5.11113H-2.00005V7.11113H-4.57764e-05ZM8.53411 7.11113L10.2617 6.10341L9.68287 5.11113H8.53411V7.11113ZM8.54487 7.12957L6.8173 8.13729L7.82504 9.8649L9.55262 8.85713L8.54487 7.12957ZM8.57649 7.11113V5.11113H8.03578L7.56874 5.38358L8.57649 7.11113ZM22 7.11113H24V5.11113H22V7.11113ZM21.7421 5.11113V7.11113H24.378L23.6683 4.57263L21.7421 5.11113ZM16.0704 5.11113L14.3429 6.1189L14.9217 7.11113H16.0704V5.11113ZM16.0543 5.08345L14.3267 6.09119L14.3267 6.09122L16.0543 5.08345ZM14.832 2.98821L13.8243 1.26065L12.0967 2.2684L13.1045 3.99595L14.832 2.98821ZM14.8321 2.9882L15.8398 4.71575L17.5799 3.7007L16.5523 1.96799L14.8321 2.9882ZM14.8284 2.98195L16.5486 1.96174L16.5485 1.96167L14.8284 2.98195ZM13.0597 0V-2H9.54816L11.3395 1.02027L13.0597 0ZM8.59605 10.7469L10.5955 10.794V10.794L8.59605 10.7469ZM10.0752 9.89285L11.0342 8.13773L11.0342 8.13773L10.0752 9.89285ZM8.47423 15.9189L6.47479 15.8718L8.47423 15.9189ZM9.97396 16.8085L8.97396 15.0764L8.97396 15.0765L9.97396 16.8085ZM14.6358 14.117L13.6358 12.3849H13.6358L14.6358 14.117ZM14.6153 12.3734L15.5742 10.6183L14.6153 12.3734ZM10.7344 -2H6.99995V2H10.7344V-2ZM12.5285 -0.895634L12.4546 -1.02027L9.01421 1.02027L9.08813 1.14491L12.5285 -0.895634ZM14.8265 2.97875L12.5285 -0.895634L9.08813 1.14491L11.3861 5.01929L14.8265 2.97875ZM15.4826 4.10339L14.8338 2.99128L11.3787 5.00676L12.0275 6.11887L15.4826 4.10339ZM9.68285 7.11113H13.755V3.11113H9.68285V7.11113ZM6.8205 4.17351L7.9553 6.11887L11.4104 4.10339L10.2756 2.15802L6.8205 4.17351ZM4.9988 1.00085L6.81362 4.16163L10.2825 2.1699L8.46766 -0.990873L4.9988 1.00085ZM6.99995 -2C6.88567 -2 6.77179 -1.99786 6.65836 -1.99361L6.8081 2.00359C6.87166 2.0012 6.93562 2 6.99995 2V-2ZM3.98538 -1.48214C1.24691 -0.508839 -0.879048 1.74929 -1.66838 4.57263L2.18391 5.64963C2.62099 4.08622 3.80455 2.82727 5.32496 2.28688L3.98538 -1.48214ZM8.54977 3.16875L6.3896 -0.593489L2.92074 1.39823L5.08091 5.16048L8.54977 3.16875ZM7.83829 5.88321L7.83831 5.8832L5.79237 2.44603L5.79235 2.44604L7.83829 5.88321ZM8.54637 3.16287L8.54291 3.15695L5.08773 5.17231L5.09118 5.17824L8.54637 3.16287ZM9.095 4.10339L8.54633 3.16281L5.09122 5.1783L5.63989 6.11887L9.095 4.10339ZM0.257764 7.11113H7.36744V3.11113H0.257764V7.11113ZM-2.00005 7.11113V15H1.99995V7.11113H-2.00005ZM8.53411 5.11113H-4.57764e-05V9.11113H8.53411V5.11113ZM10.2724 6.12186L10.2617 6.10341L6.80654 8.11885L6.8173 8.13729L10.2724 6.12186ZM7.56874 5.38358L7.53712 5.40202L9.55262 8.85713L9.58424 8.83868L7.56874 5.38358ZM9.07938 5.11113H8.57649V9.11113H9.07938V5.11113ZM22 5.11113H9.07938V9.11113H22V5.11113ZM24 15V7.11113H20V15H24ZM15 24C19.9705 24 24 19.9706 24 15H20C20 17.7614 17.7614 20 15 20V24ZM6.99995 24H15V20H6.99995V24ZM-2.00005 15C-2.00005 19.9706 2.02939 24 6.99995 24V20C4.23853 20 1.99995 17.7614 1.99995 15H-2.00005ZM23.6683 4.57263C22.6087 0.782763 19.1319 -2 15 -2V2C17.291 2 19.2269 3.54263 19.816 5.64963L23.6683 4.57263ZM16.0704 7.11113H21.7421V3.11113H16.0704V7.11113ZM14.3267 6.09122L14.3429 6.1189L17.798 4.10335L17.7818 4.07567L14.3267 6.09122ZM13.1045 3.99595L14.3267 6.09119L17.7818 4.07571L16.5596 1.98047L13.1045 3.99595ZM13.8243 1.26064L13.8243 1.26065L15.8398 4.71577L15.8398 4.71575L13.8243 1.26064ZM13.1081 4.00215L13.1118 4.00841L16.5523 1.96799L16.5486 1.96174L13.1081 4.00215ZM11.3395 1.02027L13.1082 4.00222L16.5485 1.96167L14.7799 -1.02027L11.3395 1.02027ZM15 -2H13.0597V2H15V-2ZM10.5955 10.794C10.5779 11.5428 9.77361 12.0071 9.11631 11.648L11.0342 8.13773C9.06229 7.06035 6.64952 8.45336 6.59661 10.6998L10.5955 10.794ZM10.4737 15.966L10.5955 10.794L6.59661 10.6998L6.47479 15.8718L10.4737 15.966ZM8.97396 15.0765C9.64972 14.6863 10.4921 15.1859 10.4737 15.966L6.47479 15.8718C6.41967 18.2121 8.94667 19.711 10.974 18.5406L8.97396 15.0765ZM13.6358 12.3849L8.97396 15.0764L10.974 18.5406L15.6358 15.849L13.6358 12.3849ZM13.6564 14.1285C12.9716 13.7544 12.9601 12.7751 13.6358 12.3849L15.6358 15.849C17.6631 14.6786 17.6285 11.7407 15.5742 10.6183L13.6564 14.1285ZM9.11631 11.648L13.6564 14.1285L15.5742 10.6183L11.0342 8.13773L9.11631 11.648Z" fill="black" mask="url(#path-1-inside-1_2_140)"/>
</svg>
