<svg width="22" height="24" viewBox="0 0 22 24" fill="none" xmlns="http://www.w3.org/2000/svg">
<path fill-rule="evenodd" clip-rule="evenodd" d="M8.33351 4.14284C8.33351 3.05588 9.34752 2 10.8255 2C12.3036 2 13.3176 3.05588 13.3176 4.14284V5H8.33351V4.14284ZM6.33351 5V4.14284C6.33351 1.75831 8.44637 0 10.8255 0C13.2047 0 15.3176 1.75831 15.3176 4.14284V5H17.163C19.2812 5 21.0322 6.65133 21.1561 8.76591L21.6275 16.8075C21.8295 20.2533 19.0896 23.1586 15.6378 23.1586H6.36202C2.91026 23.1586 0.170306 20.2533 0.372311 16.8075L0.843731 8.76591C0.967694 6.65132 2.71866 5 4.83688 5H6.33351ZM8.50779 9.37644C8.50544 8.82616 8.05864 8.3808 7.50781 8.3808C6.95552 8.3808 6.5078 8.82851 6.5078 9.38079L7.5078 9.3808C6.5078 9.38079 6.5078 9.38125 6.5078 9.38172L6.5078 9.38274L6.50781 9.38503L6.50784 9.39063L6.50801 9.4059C6.50818 9.41786 6.5085 9.43334 6.50907 9.45212C6.5102 9.48965 6.51233 9.54051 6.51636 9.60284C6.5244 9.72717 6.54007 9.89896 6.57081 10.1028C6.63153 10.5055 6.75483 11.0592 7.01137 11.6263C7.26855 12.1948 7.67425 12.8081 8.31414 13.2796C8.96543 13.7595 9.79902 14.0474 10.8252 14.0474C11.9169 14.0474 12.8021 13.7717 13.4997 13.3066C14.1911 12.8457 14.6395 12.2383 14.928 11.6613C15.2145 11.0883 15.3528 10.5274 15.421 10.1181C15.4555 9.91112 15.4731 9.73644 15.4822 9.6096C15.4867 9.546 15.4891 9.49394 15.4904 9.45529C15.4911 9.43595 15.4914 9.41992 15.4916 9.40744L15.4918 9.39139L15.4919 9.3854L15.4919 9.38293L15.4919 9.38182C15.4919 9.3813 15.4919 9.3808 14.4919 9.3808H15.4919C15.4919 8.82851 15.0442 8.3808 14.4919 8.3808C13.9414 8.3808 13.4949 8.82555 13.4919 9.37532L13.4915 9.38866C13.491 9.40372 13.4899 9.43044 13.4873 9.4671C13.482 9.54078 13.471 9.65255 13.4482 9.78931C13.4018 10.0676 13.3109 10.4233 13.1391 10.7669C12.9693 11.1066 12.7302 11.4159 12.3903 11.6425C12.0567 11.8649 11.5669 12.0474 10.8252 12.0474C10.1927 12.0474 9.78229 11.8771 9.50054 11.6695C9.2074 11.4535 8.99108 11.1501 8.83359 10.802C8.67544 10.4524 8.59141 10.0894 8.54846 9.80461C8.52736 9.66472 8.51712 9.55005 8.5122 9.47386C8.50975 9.43593 8.50865 9.40802 8.50816 9.39183L8.5078 9.37673L8.50779 9.37644Z" fill="black"/>
</svg>
