<svg width="24" height="24" viewBox="0 0 24 24" fill="none" xmlns="http://www.w3.org/2000/svg">
<path fill-rule="evenodd" clip-rule="evenodd" d="M17.6691 10.3164C17.6691 14.6433 14.1615 18.151 9.83456 18.151C5.50765 18.151 2 14.6433 2 10.3164C2 5.98949 5.50765 2.48184 9.83456 2.48184C14.1615 2.48184 17.6691 5.98949 17.6691 10.3164ZM16.0457 17.9418C14.3523 19.3228 12.1901 20.151 9.83456 20.151C4.40308 20.151 0 15.7479 0 10.3164C0 4.88492 4.40308 0.481842 9.83456 0.481842C15.266 0.481842 19.6691 4.88492 19.6691 10.3164C19.6691 12.672 18.841 14.8341 17.4599 16.5275L22.7434 21.8111C23.134 22.2016 23.134 22.8348 22.7434 23.2253C22.3529 23.6158 21.7198 23.6158 21.3292 23.2253L16.0457 17.9418Z" fill="black"/>
</svg>
