<svg width="22" height="24" viewBox="0 0 22 24" fill="none" xmlns="http://www.w3.org/2000/svg">
<path fill-rule="evenodd" clip-rule="evenodd" d="M10.8255 2C9.34752 2 8.33351 3.05588 8.33351 4.14284V5H13.3176V4.14284C13.3176 3.05588 12.3036 2 10.8255 2ZM6.33351 4.14284V5H4.83688C2.71866 5 0.967694 6.65132 0.843731 8.76591L0.372311 16.8075C0.170306 20.2533 2.91026 23.1586 6.36202 23.1586H15.6378C19.0896 23.1586 21.8295 20.2533 21.6275 16.8075L21.1561 8.76591C21.0322 6.65133 19.2812 5 17.163 5H15.3176V4.14284C15.3176 1.75831 13.2047 0 10.8255 0C8.44637 0 6.33351 1.75831 6.33351 4.14284ZM17.163 7H4.83688C3.77777 7 2.90228 7.82566 2.8403 8.88295L2.36888 16.9245C2.23421 19.2218 4.06085 21.1586 6.36202 21.1586H15.6378C17.939 21.1586 19.7656 19.2218 19.631 16.9245L19.1595 8.88296C19.0976 7.82566 18.2221 7 17.163 7ZM7.50783 8.3808C8.05866 8.3808 8.50547 8.82616 8.50781 9.37644L8.50782 9.37673L8.50818 9.39184C8.50867 9.40802 8.50977 9.43593 8.51222 9.47386C8.51715 9.55005 8.52738 9.66472 8.54848 9.80461C8.59143 10.0894 8.67546 10.4524 8.83361 10.802C8.9911 11.1501 9.20742 11.4535 9.50056 11.6695C9.78231 11.8771 10.1928 12.0474 10.8253 12.0474C11.5669 12.0474 12.0567 11.8649 12.3903 11.6425C12.7302 11.4159 12.9693 11.1066 13.1392 10.7669C13.311 10.4233 13.4018 10.0676 13.4482 9.78931C13.471 9.65255 13.482 9.54078 13.4873 9.4671C13.4899 9.43044 13.4911 9.40372 13.4916 9.38866L13.4919 9.37532C13.4949 8.82555 13.9415 8.3808 14.4919 8.3808C15.0442 8.3808 15.4919 8.82851 15.4919 9.3808H14.4919C15.4919 9.3808 15.4919 9.3813 15.4919 9.38182L15.4919 9.38293L15.4919 9.3854L15.4919 9.39139L15.4917 9.40744C15.4915 9.41992 15.4911 9.43595 15.4905 9.45529C15.4892 9.49394 15.4867 9.546 15.4822 9.6096C15.4731 9.73644 15.4555 9.91112 15.421 10.1181C15.3528 10.5274 15.2145 11.0883 14.928 11.6613C14.6395 12.2383 14.1911 12.8457 13.4997 13.3066C12.8021 13.7717 11.9169 14.0474 10.8253 14.0474C9.79905 14.0474 8.96545 13.7595 8.31417 13.2796C7.67427 12.8081 7.26858 12.1948 7.01139 11.6263C6.75486 11.0592 6.63155 10.5055 6.57084 10.1028C6.5401 9.89896 6.52442 9.72717 6.51638 9.60284C6.51236 9.54051 6.51022 9.48965 6.50909 9.45212C6.50852 9.43334 6.50821 9.41786 6.50803 9.4059L6.50786 9.39063L6.50783 9.38503L6.50783 9.38274L6.50782 9.38172C6.50782 9.38125 6.50782 9.38079 7.50782 9.3808L6.50782 9.38079C6.50783 8.82851 6.95554 8.3808 7.50783 8.3808Z" fill="black"/>
</svg>
