<svg width="23" height="24" viewBox="0 0 23 24" fill="none" xmlns="http://www.w3.org/2000/svg">
<path fill-rule="evenodd" clip-rule="evenodd" d="M9.67058 1.57019C10.4603 0.731161 11.7937 0.731161 12.5834 1.57019L21.5358 11.0821C21.8849 11.4531 22.0794 11.9434 22.0794 12.4528V21.4451C22.0794 22.5497 21.1839 23.4451 20.0794 23.4451H15.0952C13.9907 23.4451 13.0952 22.5497 13.0952 21.4451V16.5157L13.0951 16.5129C13.0949 16.5051 13.0941 16.4887 13.0923 16.465C13.0887 16.4173 13.0809 16.342 13.0643 16.2489C13.0304 16.0581 12.9643 15.8175 12.8419 15.5878C12.7221 15.3634 12.5547 15.1597 12.313 15.0087C12.0746 14.8597 11.7068 14.7259 11.127 14.7259C9.70083 14.7259 9.2258 15.2613 9.02948 15.609C8.90962 15.8212 8.852 16.0429 8.82626 16.2187C8.81368 16.3046 8.80962 16.3734 8.80848 16.4159C8.80793 16.4364 8.80807 16.4501 8.80819 16.456L8.80952 16.4773V21.4451C8.80952 22.5497 7.91409 23.4451 6.80952 23.4451H2C0.89543 23.4451 0 22.5497 0 21.4451V12.6383C0 12.1289 0.194427 11.6386 0.543599 11.2676L9.67058 1.57019ZM14.0952 16.5086H15.0952V21.4451H20.0794V12.4528L11.127 2.94092L2 12.6383L2 21.4451L6.80952 21.4451V16.5301C6.80919 16.5207 6.80888 16.5101 6.80863 16.4983C6.8079 16.4631 6.80772 16.4172 6.8092 16.3622C6.81215 16.2525 6.82174 16.1039 6.84735 15.929C6.898 15.583 7.01498 15.109 7.28798 14.6255C7.87737 13.5818 9.06107 12.7259 11.127 12.7259C12.0313 12.7259 12.7766 12.9399 13.373 13.3127C13.9662 13.6834 14.3552 14.1755 14.6066 14.6467C14.8551 15.1127 14.9746 15.5678 15.0334 15.8988C15.0632 16.0665 15.0786 16.2087 15.0866 16.3131C15.0905 16.3655 15.0927 16.4089 15.0939 16.4418C15.0945 16.4583 15.0948 16.4723 15.095 16.4834L15.0952 16.4981L15.0952 16.5039L15.0952 16.5064L15.0952 16.5076C15.0952 16.5076 15.0952 16.5086 14.0952 16.5086Z" fill="black"/>
</svg>
