<svg width="22" height="23" viewBox="0 0 22 23" fill="none" xmlns="http://www.w3.org/2000/svg">
<path d="M10.0753 10.3747C9.41798 10.0155 8.61372 10.4799 8.59609 11.2287L8.47427 16.4008C8.45589 17.1808 9.29823 17.6805 9.97399 17.2903L14.6359 14.5988C15.3116 14.2086 15.3001 13.2293 14.6153 12.8552L10.0753 10.3747Z" fill="black"/>
<path fill-rule="evenodd" clip-rule="evenodd" d="M7 0.481842C3.13401 0.481842 0 3.61585 0 7.48184V15.4818C0 19.3478 3.13401 22.4818 7 22.4818H15C18.866 22.4818 22 19.3478 22 15.4818V7.48184C22 3.61585 18.866 0.481842 15 0.481842H7ZM15 2.48184H14.2392L14.8321 3.47001L16.0704 5.59296H19.6309C18.8857 3.76793 17.0931 2.48184 15 2.48184ZM7.84876 2.48184H11.9069L13.1076 4.48309L13.755 5.59296H9.68287L8.54642 3.64461L7.84876 2.48184ZM2.36909 5.59296C2.94518 4.18204 4.14733 3.09324 5.63033 2.67176L6.8219 4.65772L7.36746 5.59296H2.36909ZM2 15.4818V7.59296H8.53413L8.54489 7.61141L8.5765 7.59296H20V15.4818C20 18.2433 17.7614 20.4818 15 20.4818H7C4.23858 20.4818 2 18.2433 2 15.4818Z" fill="black"/>
</svg>
